<svg width="80" height="80" viewBox="0 0 80 80" fill="none" xmlns="http://www.w3.org/2000/svg">
<mask id="mask0_2_9" style="mask-type:luminance" maskUnits="userSpaceOnUse" x="6" y="3" width="51" height="34">
<path d="M6.75586 3.57666H56.96V36.48H6.75586V3.57666Z" fill="white"/>
</mask>
<g mask="url(#mask0_2_9)">
<mask id="mask1_2_9" style="mask-type:luminance" maskUnits="userSpaceOnUse" x="6" y="3" width="51" height="34">
<path d="M32.6017 3.57666C18.33 3.57666 6.76086 15.1258 6.76086 29.3733C6.76086 31.44 7.0967 33.6442 7.68586 35.9308C14.58 36.85 21.6309 36.5775 28.4259 35.0767C38.6184 32.8258 50.2884 27.5367 56.9192 20.64C53.3309 10.6892 43.8009 3.57666 32.6017 3.57666ZM14.8317 20.2133L14.825 20.1042C14.825 17.7492 16.7375 15.8392 19.0992 15.8392C19.5942 15.8392 20.0684 15.9275 20.5109 16.0825C20.9684 14.8558 22.1492 13.98 23.535 13.98C25.0975 13.98 26.4017 15.0875 26.7017 16.5617C26.7775 16.5575 26.8534 16.5517 26.9309 16.5517C29.0617 16.5517 30.8167 18.1508 31.0625 20.215H14.8317V20.2133ZM32.2075 26.2725L32.205 26.2183C32.205 25.0392 33.1617 24.0842 34.3425 24.0842C34.59 24.0842 34.8267 24.1283 35.0467 24.2058C35.2759 23.5925 35.865 23.155 36.5592 23.155C37.3417 23.155 37.9934 23.71 38.1425 24.4442C38.18 24.4425 38.2184 24.4383 38.2584 24.4383C39.3234 24.4383 40.2025 25.2383 40.3242 26.27H32.2075V26.2725Z" fill="white"/>
</mask>
<g mask="url(#mask1_2_9)">
<path d="M6.76086 3.57666V36.85H56.9192V3.57666H6.76086Z" fill="white"/>
</g>
</g>
<mask id="mask2_2_9" style="mask-type:luminance" maskUnits="userSpaceOnUse" x="17" y="23" width="42" height="54">
<path d="M17.28 23.2533H58.4534V76.3767H17.28V23.2533Z" fill="white"/>
</mask>
<g mask="url(#mask2_2_9)">
<mask id="mask3_2_9" style="mask-type:luminance" maskUnits="userSpaceOnUse" x="17" y="23" width="42" height="54">
<path d="M58.44 29.3733C58.44 47.3183 32.5992 76.3767 32.5992 76.3767C32.5992 76.3767 24.565 67.4133 17.4534 56.3333C24.37 53.675 31.0667 50.5342 37.23 46.4475C45.905 40.6942 53.5075 32.8275 57.7442 23.4333C58.2009 25.345 58.44 27.33 58.44 29.3733Z" fill="white"/>
</mask>
<g mask="url(#mask3_2_9)">
<path d="M17.4534 23.4333V76.3767H58.44V23.4333H17.4534Z" fill="white"/>
</g>
</g>
<mask id="mask4_2_9" style="mask-type:luminance" maskUnits="userSpaceOnUse" x="58" y="4" width="16" height="17">
<path d="M58.24 4.48001H73.3158V20.0533H58.24V4.48001Z" fill="white"/>
</mask>
<g mask="url(#mask4_2_9)">
<mask id="mask5_2_9" style="mask-type:luminance" maskUnits="userSpaceOnUse" x="58" y="4" width="16" height="16">
<path d="M73.3017 5.17418L73.1675 6.72751C73.1 7.10668 72.8233 7.63418 72.5467 7.90418L70.8075 9.60251C70.5333 9.87251 70.4008 10.3892 70.5142 10.76L72.3367 16.6725C72.4517 17.0433 72.4417 17.6383 72.3175 18.0042L72.2992 18.055C72.1733 18.4208 71.9 18.4525 71.6908 18.1275L68.2408 12.81C68.0308 12.4875 67.6242 12.4308 67.3325 12.6825L63.9075 15.67C63.6183 15.9233 63.44 16.4358 63.5133 16.815L63.8242 18.425C63.8992 18.8017 63.8758 19.3567 63.7758 19.6608C63.675 19.9642 63.4192 19.9492 63.2033 19.6333L62.0667 17.96C61.85 17.6467 61.5067 17.535 61.2983 17.7242C61.0908 17.9125 60.8058 18.0733 60.6592 18.0817C60.5142 18.0925 60.4008 18.0025 60.4075 17.8825C60.4133 17.7633 60.5292 17.4617 60.6717 17.2133C60.8125 16.9617 60.6442 16.62 60.2983 16.4483L60.2042 16.4025C60.2058 16.3942 60.2083 16.3842 60.21 16.3758C60.2058 16.3842 60.2 16.39 60.1958 16.3983L58.9033 15.76C58.56 15.5925 58.3667 15.3367 58.4758 15.1967C58.5867 15.0567 58.9875 14.96 59.3758 14.9833L61.6742 15.1092C62.06 15.1317 62.5442 14.8867 62.7542 14.5642L65.1075 10.9675C65.3192 10.645 65.2167 10.2308 64.8783 10.0417L59.61 7.11751C59.2708 6.93251 59.2158 6.66251 59.48 6.52001C59.745 6.38251 60.265 6.33584 60.6425 6.42001L67.1567 7.68001C67.5342 7.76584 68.0458 7.60251 68.3017 7.31168L70.0233 5.42501C70.2817 5.13418 70.795 4.84751 71.1767 4.78251L72.7267 4.60251C73.1083 4.53751 73.3642 4.79501 73.3017 5.17418Z" fill="white"/>
</mask>
<g mask="url(#mask5_2_9)">
<path d="M58.3666 4.53751V19.9642H73.3158V4.53751H58.3666Z" fill="white"/>
</g>
</g>
<mask id="mask6_2_9" style="mask-type:luminance" maskUnits="userSpaceOnUse" x="60" y="16" width="1" height="1">
<path d="M60.16 16.2133H60.3733V16.4267H60.16V16.2133Z" fill="white"/>
</mask>
<g mask="url(#mask6_2_9)">
<mask id="mask7_2_9" style="mask-type:luminance" maskUnits="userSpaceOnUse" x="60" y="16" width="1" height="1">
<path d="M60.1933 16.3967L60.2 16.4008C60.2016 16.3925 60.2041 16.3817 60.2058 16.3733C60.2016 16.3817 60.1975 16.39 60.1933 16.3967Z" fill="white"/>
</mask>
<g mask="url(#mask7_2_9)">
<path d="M60.2125 16.375L60.1941 16.37L60.1866 16.3992L60.205 16.4033L60.2125 16.375Z" fill="white"/>
</g>
</g>
</svg>
